<?xml version="1.0" encoding="utf-8"?>
<!-- Generator: Adobe Illustrator 26.3.1, SVG Export Plug-In . SVG Version: 6.00 Build 0)  -->
<svg version="1.1" id="Layer_1" xmlns="http://www.w3.org/2000/svg" xmlns:xlink="http://www.w3.org/1999/xlink" x="0px" y="0px"
	 viewBox="0 0 1920 228.2" style="enable-background:new 0 0 1920 228.2;" xml:space="preserve">
<style type="text/css">
	.st0{fill:#F6F6F6;}
</style>
<g>
	<path class="st0" d="M28.4,154.9c15,15,38,27.4,66.4,27.4c18.4,0,29.6-7.8,29.6-17.8c0-11.8-13.4-16.5-35.5-21.2
		c-34.3-6.9-82.3-15.6-82.3-64.8c0-34.9,29.6-65.2,82.9-65.2c33.4,0,62.3,10,84.5,29l-29.3,38.3C127.2,66.4,104.4,59.2,86,59.2
		c-17.8,0-24.6,7.2-24.6,16.2c0,10.9,12.8,14.7,35.9,19c34.3,7.2,81.7,17.2,81.7,64.2c0,41.8-30.9,69.5-86.7,69.5
		c-42.1,0-71.4-13.1-92.3-33L28.4,154.9z"/>
	<path class="st0" d="M207.5,183.9v-68.3h-24.9V73.9h24.9V32.7h47.7v41.2h30.6v41.8h-30.6v54.9c0,8.7,5,15.3,13.4,15.3
		c5.3,0,10.6-1.9,12.2-3.7l9.4,36.2c-5.9,5.6-17.8,10-35.5,10C224.1,228.2,207.5,212.9,207.5,183.9z"/>
	<path class="st0" d="M396.5,224.5v-15c-9.4,11.2-27.4,18.7-46.8,18.7c-23.1,0-51.8-15.6-51.8-49.6c0-36.5,28.7-47.4,51.8-47.4
		c20,0,37.7,6.2,46.8,17.5v-19c0-13.1-11.2-21.8-30.6-21.8c-15,0-30.6,5.6-42.7,15.9l-17.1-30.2c19.3-16.5,45.2-23.4,68.3-23.4
		c36.2,0,70.1,13.4,70.1,60.2v94.2H396.5z M396.5,172.4c-5-6.9-16.2-10.6-26.8-10.6c-12.8,0-24,5.6-24,17.5
		c0,11.8,11.2,17.5,24,17.5c10.6,0,21.8-3.7,26.8-10.9V172.4z"/>
	<path class="st0" d="M577,224.5v-87c0-18.4-9.7-24.9-24.6-24.9c-14.3,0-23.7,7.8-29.3,14.7v97.3h-48V73.9h48v18.4
		c9-10.6,26.8-22.1,52.1-22.1c34.3,0,49.9,20,49.9,47.7v106.6H577z"/>
	<path class="st0" d="M758.3,224.5V207c-12.5,14.3-27.7,21.2-44.6,21.2c-37.1,0-66.7-28.1-66.7-79.2c0-49.3,29-78.9,66.7-78.9
		c16.5,0,32.4,6.5,44.6,21.5V16.5H806v207.9H758.3z M758.3,126c-6.2-8.1-18.7-13.4-29-13.4c-19,0-33,14-33,36.5
		c0,22.5,14,36.8,33,36.8c10.3,0,22.8-5.6,29-13.7V126z"/>
	<path class="st0" d="M926.8,224.5v-15c-9.4,11.2-27.4,18.7-46.8,18.7c-23.1,0-51.8-15.6-51.8-49.6c0-36.5,28.7-47.4,51.8-47.4
		c20,0,37.7,6.2,46.8,17.5v-19c0-13.1-11.2-21.8-30.6-21.8c-15,0-30.6,5.6-42.7,15.9l-17.1-30.2c19.3-16.5,45.2-23.4,68.3-23.4
		c36.2,0,70.1,13.4,70.1,60.2v94.2H926.8z M926.8,172.4c-5-6.9-16.2-10.6-26.8-10.6c-12.8,0-24,5.6-24,17.5
		c0,11.8,11.2,17.5,24,17.5c10.6,0,21.8-3.7,26.8-10.9V172.4z"/>
	<path class="st0" d="M1005.4,224.5V73.9h48v19c10-12.2,29-22.8,47.1-22.8v46.5c-2.8-0.9-6.9-1.6-11.8-1.6c-12.5,0-29,5.3-35.2,14
		v95.4H1005.4z"/>
	<path class="st0" d="M1220.5,224.5V207c-12.5,14.3-27.7,21.2-44.6,21.2c-37.1,0-66.7-28.1-66.7-79.2c0-49.3,29-78.9,66.7-78.9
		c16.5,0,32.4,6.5,44.6,21.5V16.5h47.7v207.9H1220.5z M1220.5,126c-6.2-8.1-18.7-13.4-29-13.4c-19,0-33,14-33,36.5
		c0,22.5,14,36.8,33,36.8c10.3,0,22.8-5.6,29-13.7V126z"/>
	<path class="st0" d="M1339.4,224.5l-59.2-150.6h50.5l34,95.4l34.3-95.4h50.8l-59.2,150.6H1339.4z"/>
	<path class="st0" d="M1458,27.4c0-15.3,12.2-27.4,27.4-27.4c15.3,0,27.4,12.2,27.4,27.4c0,15.3-12.2,27.4-27.4,27.4
		C1470.2,54.9,1458,42.7,1458,27.4z M1461.4,224.5V73.9h48v150.6H1461.4z"/>
	<path class="st0" d="M1540,224.5V16.5h48v207.9H1540z"/>
	<path class="st0" d="M1618.5,224.5V16.5h48v207.9H1618.5z"/>
	<path class="st0" d="M1768.1,70.1c44.6,0,77,32.7,77,83.9v10.3h-107.2c2.8,14,15.9,26.8,38.3,26.8c13.4,0,28.4-5.3,36.8-12.8
		l20.3,29.9c-15,13.4-39.9,20-63,20c-46.5,0-82.3-30.2-82.3-79.2C1687.9,105.4,1721,70.1,1768.1,70.1z M1737.2,133.1h62
		c-1.2-10.6-9-25.9-31.2-25.9C1747.2,107.2,1739.1,122.2,1737.2,133.1z"/>
</g>
<g>
	<path class="st0" d="M1873.2,89.1V68.9h-7.3v-5.8h21.2v5.8h-7.2v20.1H1873.2z"/>
	<path class="st0" d="M1913.3,89.1V71.5l-6.6,17.5h-3l-6.5-17.5v17.5h-6.7v-26h9.3l5.4,14.7l5.5-14.7h9.3v26H1913.3z"/>
</g>
</svg>
